<?xml version="1.0" encoding="UTF-8" standalone="no"?>
<!DOCTYPE svg PUBLIC "-//W3C//DTD SVG 1.1//EN" "http://www.w3.org/Graphics/SVG/1.1/DTD/svg11.dtd">
<svg width="100%" height="100%" viewBox="0 0 426 428" version="1.1" xmlns="http://www.w3.org/2000/svg" xmlns:xlink="http://www.w3.org/1999/xlink" xml:space="preserve" xmlns:serif="http://www.serif.com/" style="fill-rule:evenodd;clip-rule:evenodd;stroke-linejoin:round;stroke-miterlimit:2;">
<rect id="Plan-de-travail1" serif:id="Plan de travail1" x="0" y="0" width="425.254" height="427.14" style="fill:none;"/>
<path d="M118.603,402.22c52.551,25.671 110.549,27.71 161.867,10.108c50.867,-17.448 95.183,-54.137 120.687,-106.196c25.416,-51.61 27.478,-108.638 10.391,-159.194c-16.994,-50.279 -52.94,-94.209 -104.173,-119.678c-19.927,-10.041 -40.722,-16.508 -61.65,-19.769c-32.664,-5.09 -65.678,-2.237 -96.421,7.698c-50.684,16.378 -95.168,51.952 -121.413,103.023c-26.633,51.382 -29.733,108.726 -13.548,159.914c16.345,51.698 52.419,97.097 104.26,124.094Zm5.396,-10.719c-50.136,-24.385 -85.648,-66.843 -102.493,-115.74c-17.017,-49.398 -15.037,-105.281 9.693,-155.883c25.107,-50.916 68.525,-86.894 118.422,-103.731c30.529,-10.302 63.486,-13.459 96.087,-8.546c20.935,3.156 41.712,9.694 61.638,19.717c50.755,25.874 86.356,69.861 102.582,120.156c16.138,50.022 13.073,106.22 -12.851,156.603c-25.827,49.941 -69.44,84.769 -119.148,100.558c-49.254,15.646 -104.473,12.514 -153.93,-13.133l0,-0.001Z" style="fill:#fff;"/>
<path d="M115.486,105.767c-0,-4.66 -3.783,-8.443 -8.443,-8.443l-64.958,-0c-4.66,-0 -8.444,3.783 -8.444,8.443l0,93.681c0,4.66 3.784,8.444 8.444,8.444l64.958,-0c4.66,-0 8.443,-3.784 8.443,-8.444l-0,-93.681Z" style="fill:#fff;"/>
<path d="M115.911,105.767c-0,-4.895 -3.974,-8.868 -8.868,-8.868c-0,-0 -64.958,-0 -64.958,-0c-4.895,-0 -8.869,3.973 -8.869,8.868c0,-0 0,93.681 0,93.681c0,4.895 3.974,8.869 8.869,8.869c-0,-0 64.958,-0 64.958,-0c4.894,-0 8.868,-3.974 8.868,-8.869l-0,-93.681Zm-0.85,-0l-0,93.681c-0,4.426 -3.593,8.019 -8.018,8.019l-64.958,-0c-4.426,-0 -8.019,-3.593 -8.019,-8.019l0,-93.681c0,-4.426 3.593,-8.018 8.019,-8.018l64.958,-0c4.425,-0 8.018,3.592 8.018,8.018Z" style="fill:#fff;"/>
<path d="M208.757,105.767c0,-4.66 -3.783,-8.443 -8.443,-8.443l-64.958,-0c-4.66,-0 -8.443,3.783 -8.443,8.443l0,93.681c0,4.66 3.783,8.444 8.443,8.444l64.958,-0c4.66,-0 8.443,-3.784 8.443,-8.444l0,-93.681Z" style="fill:#fff;"/><path d="M209.182,105.767c0,-4.895 -3.973,-8.868 -8.868,-8.868c0,-0 -64.958,-0 -64.958,-0c-4.894,-0 -8.868,3.973 -8.868,8.868l0,93.681c0,4.895 3.974,8.869 8.868,8.869c0,-0 64.958,-0 64.958,-0c4.895,-0 8.868,-3.974 8.868,-8.869c0,0 0,-93.681 0,-93.681Zm-0.85,-0l0,93.681c0,4.426 -3.592,8.019 -8.018,8.019l-64.958,-0c-4.425,-0 -8.018,-3.593 -8.018,-8.019c0,0 0,-93.681 0,-93.681c0,-4.426 3.593,-8.018 8.018,-8.018l64.958,-0c4.426,-0 8.018,3.592 8.018,8.018Z" style="fill:#fff;"/><path d="M304.938,105.767c-0,-6.316 -5.128,-11.443 -11.443,-11.443c-0,-0 -64.958,-0 -64.958,-0c-6.316,-0 -11.443,5.127 -11.443,11.443c-0,-0 -0,93.681 -0,93.681c-0,6.316 5.127,11.444 11.443,11.444c-0,-0 64.958,-0 64.958,-0c6.315,-0 11.443,-5.128 11.443,-11.444l-0,-93.681Zm-6,-0l-0,93.681c-0,3.005 -2.439,5.444 -5.443,5.444l-64.958,-0c-3.004,-0 -5.443,-2.439 -5.443,-5.444l-0,-93.681c-0,-3.004 2.439,-5.443 5.443,-5.443l64.958,-0c3.004,-0 5.443,2.439 5.443,5.443Z" style="fill:#fff;"/><path d="M211.757,224.701c0,-6.316 -5.127,-11.443 -11.443,-11.443c0,-0 -64.958,-0 -64.958,-0c-6.315,-0 -11.443,5.127 -11.443,11.443l0,93.682c0,6.315 5.128,11.443 11.443,11.443l64.958,-0c6.316,-0 11.443,-5.128 11.443,-11.443c0,-0 0,-93.682 0,-93.682Zm-6,0l0,93.682c0,3.004 -2.439,5.443 -5.443,5.443c0,-0 -64.958,-0 -64.958,-0c-3.004,-0 -5.443,-2.439 -5.443,-5.443c0,-0 0,-93.682 0,-93.682c0,-3.004 2.439,-5.443 5.443,-5.443l64.958,-0c3.004,-0 5.443,2.439 5.443,5.443Z" style="fill:#fff;"/><path d="M395.021,105.767c-0,-4.66 -3.784,-8.443 -8.443,-8.443l-64.959,-0c-4.659,-0 -8.443,3.783 -8.443,8.443l0,93.681c0,4.66 3.784,8.444 8.443,8.444l64.959,-0c4.659,-0 8.443,-3.784 8.443,-8.444l-0,-93.681Z" style="fill:#fff;"/><path d="M395.446,105.767c-0,-4.895 -3.974,-8.868 -8.868,-8.868c-0,-0 -64.959,-0 -64.959,-0c-4.894,-0 -8.868,3.973 -8.868,8.868l0,93.681c0,4.895 3.974,8.869 8.868,8.869c0,-0 64.959,-0 64.959,-0c4.894,-0 8.868,-3.974 8.868,-8.869l-0,-93.681Zm-0.85,-0l-0,93.681c-0,4.426 -3.593,8.019 -8.018,8.019l-64.959,-0c-4.425,-0 -8.018,-3.593 -8.018,-8.019c0,0 0,-93.681 0,-93.681c0,-4.426 3.593,-8.018 8.018,-8.018l64.959,-0c4.425,-0 8.018,3.592 8.018,8.018Z" style="fill:#fff;"/><path d="M115.486,224.701c-0,-4.66 -3.783,-8.443 -8.443,-8.443l-64.958,-0c-4.66,-0 -8.444,3.783 -8.444,8.443l0,93.682c0,4.66 3.784,8.443 8.444,8.443l64.958,-0c4.66,-0 8.443,-3.783 8.443,-8.443l-0,-93.682Z" style="fill:#fff;"/><path d="M115.911,224.701c-0,-4.894 -3.974,-8.868 -8.868,-8.868c-0,-0 -64.958,-0 -64.958,-0c-4.895,-0 -8.869,3.974 -8.869,8.868c0,0 0,93.682 0,93.682c0,4.894 3.974,8.868 8.869,8.868l64.958,-0c4.894,-0 8.868,-3.974 8.868,-8.868l-0,-93.682Zm-0.85,0l-0,93.682c-0,4.425 -3.593,8.018 -8.018,8.018c-0,-0 -64.958,-0 -64.958,-0c-4.426,-0 -8.019,-3.593 -8.019,-8.018l0,-93.682c0,-4.425 3.593,-8.018 8.019,-8.018l64.958,-0c4.425,-0 8.018,3.593 8.018,8.018Z" style="fill:#fff;"/><path d="M301.938,224.701c-0,-4.66 -3.783,-8.443 -8.443,-8.443l-64.958,-0c-4.66,-0 -8.443,3.783 -8.443,8.443l-0,93.682c-0,4.66 3.783,8.443 8.443,8.443l64.958,-0c4.66,-0 8.443,-3.783 8.443,-8.443l-0,-93.682Z" style="fill:#fff;"/><path d="M302.363,224.701c-0,-4.894 -3.974,-8.868 -8.868,-8.868c-0,-0 -64.958,-0 -64.958,-0c-4.895,-0 -8.868,3.974 -8.868,8.868c-0,0 -0,93.682 -0,93.682c-0,4.894 3.973,8.868 8.868,8.868l64.958,-0c4.894,-0 8.868,-3.974 8.868,-8.868l-0,-93.682Zm-0.85,0l-0,93.682c-0,4.425 -3.593,8.018 -8.018,8.018c-0,-0 -64.958,-0 -64.958,-0c-4.426,-0 -8.018,-3.593 -8.018,-8.018l-0,-93.682c-0,-4.425 3.592,-8.018 8.018,-8.018l64.958,-0c4.425,-0 8.018,3.593 8.018,8.018Z" style="fill:#fff;"/><path d="M395.021,224.701c-0,-4.66 -3.784,-8.443 -8.443,-8.443l-64.959,-0c-4.659,-0 -8.443,3.783 -8.443,8.443l0,93.682c0,4.66 3.784,8.443 8.443,8.443l64.959,-0c4.659,-0 8.443,-3.783 8.443,-8.443l-0,-93.682Z" style="fill:#fff;"/><path d="M395.446,224.701c-0,-4.894 -3.974,-8.868 -8.868,-8.868c-0,-0 -64.959,-0 -64.959,-0c-4.894,-0 -8.868,3.974 -8.868,8.868l0,93.682c0,4.894 3.974,8.868 8.868,8.868l64.959,-0c4.894,-0 8.868,-3.974 8.868,-8.868l-0,-93.682Zm-0.85,0l-0,93.682c-0,4.425 -3.593,8.018 -8.018,8.018c-0,-0 -64.959,-0 -64.959,-0c-4.425,-0 -8.018,-3.593 -8.018,-8.018c0,-0 0,-93.682 0,-93.682c0,-4.425 3.593,-8.018 8.018,-8.018l64.959,-0c4.425,-0 8.018,3.593 8.018,8.018Z" style="fill:#fff;"/></svg>