<?xml version="1.0" encoding="UTF-8" standalone="no"?><!DOCTYPE svg PUBLIC "-//W3C//DTD SVG 1.1//EN" "http://www.w3.org/Graphics/SVG/1.1/DTD/svg11.dtd"><svg width="100%" height="100%" viewBox="0 0 14 14" version="1.1" xmlns="http://www.w3.org/2000/svg" xmlns:xlink="http://www.w3.org/1999/xlink" xml:space="preserve" xmlns:serif="http://www.serif.com/" style="fill-rule:evenodd;clip-rule:evenodd;stroke-linejoin:round;stroke-miterlimit:2;"><path d="M12.52,3.086l-1.498,0l-0.662,0.72l1.92,0l0,5.76l-10.56,0l0,-5.76l6.143,0l0.507,-0.72l-6.89,0c-0.265,0 -0.48,0.215 -0.48,0.48l0,6.96c0,0.265 0.215,0.48 0.48,0.48l11.04,0c0.265,0 0.48,-0.215 0.48,-0.48l0,-6.96c0,-0.265 -0.215,-0.48 -0.48,-0.48Zm-1.511,-1.635c-0.322,-0.26 -0.856,-0.132 -1.192,0.285l-3.407,4.841c-0.337,0.417 -0.335,0.337 -0.013,0.597c0.323,0.259 0.245,0.278 0.581,-0.139l4.005,-4.358c0.337,-0.418 0.349,-0.967 0.026,-1.226Zm-0.876,0.579c0,0 -0.05,-0.058 -0.216,-0.191c0.249,-0.406 0.738,-0.332 0.738,-0.332c-0.463,0.274 -0.522,0.523 -0.522,0.523Zm-5.933,6.355c0.664,-0.006 0.747,-0.166 0.963,-0.832c0.399,-1.053 2.197,0.275 1.083,0.736c-1.114,0.461 -2.71,0.101 -2.046,0.096Zm4.351,3.982c-0.208,-0.152 -0.23,-0.382 -0.23,-0.382l-0.078,-0.499l-2.486,0l-0.078,0.499c-0,-0 -0.022,0.229 -0.23,0.382c-0.208,0.153 -0.372,0.284 -0.208,0.307c0.158,0.021 1.649,0.002 1.759,-0c0.11,0.002 1.601,0.021 1.758,-0c0.164,-0.022 0,-0.153 -0.207,-0.307Z" style="fill:#fff;fill-rule:nonzero;"/></svg>